<svg xmlns="http://www.w3.org/2000/svg" viewBox="0 0 512 512">
  <defs>
    <radialGradient id="g" cx="50%" cy="34%" r="80%">
      <stop offset="0" stop-color="#3f7a5b"/>
      <stop offset="1" stop-color="#1f4331"/>
    </radialGradient>
    <linearGradient id="p" x1="0" y1="0" x2="0" y2="1">
      <stop offset="0" stop-color="#fffdf4"/>
      <stop offset="1" stop-color="#efe8d2"/>
    </linearGradient>
    <clipPath id="page"><rect x="104" y="124" width="304" height="292" rx="46"/></clipPath>
  </defs>
  <rect width="512" height="512" fill="url(#g)"/>
  <!-- calendar page -->
  <rect x="104" y="134" width="304" height="292" rx="46" fill="#16301f" opacity=".3"/>
  <rect x="104" y="124" width="304" height="292" rx="46" fill="url(#p)"/>
  <rect x="104" y="124" width="304" height="86" fill="#e8a531" clip-path="url(#page)"/>
  <!-- rings -->
  <g fill="#fffdf4" stroke="#1f4331" stroke-width="7">
    <rect x="170" y="92" width="28" height="72" rx="14"/>
    <rect x="314" y="92" width="28" height="72" rx="14"/>
  </g>
  <!-- days -->
  <g fill="#2f5a43" opacity=".2">
    <rect x="142" y="240" width="40" height="40" rx="11"/><rect x="206" y="240" width="40" height="40" rx="11"/><rect x="270" y="240" width="40" height="40" rx="11"/><rect x="334" y="240" width="40" height="40" rx="11"/>
    <rect x="142" y="296" width="40" height="40" rx="11"/><rect x="206" y="296" width="40" height="40" rx="11"/><rect x="334" y="296" width="40" height="40" rx="11"/>
    <rect x="142" y="352" width="40" height="40" rx="11"/><rect x="206" y="352" width="40" height="40" rx="11"/><rect x="270" y="352" width="40" height="40" rx="11"/>
  </g>
  <!-- today, with a sprout -->
  <rect x="262" y="288" width="56" height="56" rx="16" fill="#2f5a43"/>
  <path d="M290 334 V 312" stroke="#fffdf4" stroke-width="6" stroke-linecap="round"/>
  <path d="M290 322 C 279 320 273 313 272 303 C 283 304 289 311 290 320 Z" fill="#fffdf4"/>
  <path d="M290 316 C 301 314 307 307 308 297 C 297 298 291 305 290 314 Z" fill="#f4c466"/>
</svg>
